<svg width="113" height="113" viewBox="0 0 113 113" fill="none" xmlns="http://www.w3.org/2000/svg">
<g filter="url(#filter0_d_1649_1560)">
<circle cx="31.5" cy="31.5" r="31.5" transform="matrix(-1 0 0 1 88 25)" fill="white"/>
</g>
<path d="M71.0607 54.9393C71.6464 55.5251 71.6464 56.4749 71.0607 57.0607L61.5147 66.6066C60.9289 67.1924 59.9792 67.1924 59.3934 66.6066C58.8076 66.0208 58.8076 65.0711 59.3934 64.4853L67.8787 56L59.3934 47.5147C58.8076 46.9289 58.8076 45.9792 59.3934 45.3934C59.9792 44.8076 60.9289 44.8076 61.5147 45.3934L71.0607 54.9393ZM41 54.5L70 54.5L70 57.5L41 57.5L41 54.5Z" fill="#2E240D"/>
<defs>
<filter id="filter0_d_1649_1560" x="0" y="0" width="113" height="113" filterUnits="userSpaceOnUse" color-interpolation-filters="sRGB">
<feFlood flood-opacity="0" result="BackgroundImageFix"/>
<feColorMatrix in="SourceAlpha" type="matrix" values="0 0 0 0 0 0 0 0 0 0 0 0 0 0 0 0 0 0 127 0" result="hardAlpha"/>
<feMorphology radius="5" operator="dilate" in="SourceAlpha" result="effect1_dropShadow_1649_1560"/>
<feOffset/>
<feGaussianBlur stdDeviation="10"/>
<feComposite in2="hardAlpha" operator="out"/>
<feColorMatrix type="matrix" values="0 0 0 0 0 0 0 0 0 0 0 0 0 0 0 0 0 0 0.3 0"/>
<feBlend mode="normal" in2="BackgroundImageFix" result="effect1_dropShadow_1649_1560"/>
<feBlend mode="normal" in="SourceGraphic" in2="effect1_dropShadow_1649_1560" result="shape"/>
</filter>
</defs>
</svg>
